<?xml version="1.0" encoding="UTF-8"?>
<svg xmlns="http://www.w3.org/2000/svg" xmlns:xlink="http://www.w3.org/1999/xlink" width="136pt" height="112pt" viewBox="0 0 136 112" version="1.1">
<g id="surface1">
<path style=" stroke:none;fill-rule:nonzero;fill:rgb(49.019608%,49.019608%,49.019608%);fill-opacity:1;" d="M 121.601562 29.601562 L 121.601562 16 L 68 49.601562 L 14.398438 16 L 14.398438 29.601562 L 68 62.398438 Z M 121.601562 2.398438 C 125.066406 2.398438 128.132812 3.867188 130.800781 6.800781 C 133.464844 9.734375 134.667969 12.800781 134.398438 16 L 134.398438 96 C 134.398438 99.464844 133.199219 102.535156 130.800781 105.199219 C 128.398438 107.867188 125.332031 109.332031 121.601562 109.601562 L 14.398438 109.601562 C 10.933594 109.601562 7.867188 108.132812 5.199219 105.199219 C 2.535156 102.265625 1.332031 99.199219 1.601562 96 L 1.601562 16 C 1.601562 12.535156 2.800781 9.464844 5.199219 6.800781 C 7.601562 4.132812 10.667969 2.667969 14.398438 2.398438 Z M 121.601562 2.398438 "/>
</g>
</svg>
