<?xml version="1.0" encoding="UTF-8"?>
<svg xmlns="http://www.w3.org/2000/svg" xmlns:xlink="http://www.w3.org/1999/xlink" width="129pt" height="112pt" viewBox="0 0 129 112" version="1.1">
<g id="surface1">
<path style=" stroke:none;fill-rule:nonzero;fill:rgb(33.333333%,67.45098%,93.333333%);fill-opacity:1;" d="M 113.949219 20.246094 C 119.539062 16.800781 123.410156 11.628906 125.558594 5.601562 C 119.539062 8.617188 113.949219 10.769531 108.359375 11.628906 C 103.628906 6.460938 97.179688 3.445312 89.441406 3.445312 C 82.128906 3.445312 75.679688 6.03125 70.519531 11.199219 C 65.359375 16.371094 62.78125 22.832031 62.78125 30.152344 C 62.78125 32.308594 63.210938 34.03125 63.640625 35.753906 C 41.710938 35.324219 23.21875 25.847656 9.03125 8.183594 C 6.449219 12.492188 5.160156 17.230469 5.160156 21.539062 C 5.160156 31.015625 9.460938 38.339844 17.199219 43.9375 C 12.46875 43.507812 8.601562 42.214844 5.160156 40.492188 C 5.160156 46.953125 7.308594 52.554688 11.179688 57.722656 C 15.050781 62.460938 20.210938 65.476562 26.230469 66.769531 C 24.078125 67.199219 21.929688 67.628906 19.351562 67.628906 C 17.199219 67.628906 15.480469 67.628906 14.621094 67.199219 C 16.339844 72.371094 19.351562 77.109375 23.648438 80.125 C 28.378906 83.570312 33.539062 85.292969 39.128906 85.722656 C 29.671875 93.046875 18.921875 96.921875 6.449219 96.921875 C 3.441406 96.921875 1.289062 96.921875 0 96.492188 C 12.039062 104.675781 25.800781 108.554688 40.851562 108.554688 C 55.898438 108.554688 69.660156 104.675781 81.269531 96.921875 C 93.308594 89.167969 101.910156 79.261719 107.5 68.0625 C 113.089844 56.863281 115.671875 45.230469 115.671875 33.167969 L 115.671875 29.722656 C 121.261719 25.847656 125.558594 21.109375 129 15.9375 C 124.269531 18.09375 119.109375 19.382812 113.949219 20.246094 Z M 113.949219 20.246094 "/>
</g>
</svg>
